PathFileType	4	(x/y/z)	S06_PSF_T02
DataRate	CameraRate	NumFrames	NumMarkers	Units	OrigDataRate	OrigDataStartFrame	OrigNumFrames
240	240	7	51	mm	240	202	402
Frame#	Time	Sternum			R.Acromium			L.Acromium			Top.Head			R.ASIS			L.ASIS			R.PSIS			L.PSIS			R.Great.Tro			L.Great.Tro			R.Iliac.Crest			L.Iliac.Crest			V.Sacral			R.Thigh.Upper.Post			R.Thigh.Lower.Ant			R.Thigh.Lower.Post			R.Thigh.Upper.Ant			R.Knee.Lat			R.Knee.Med			R.Shank.Upper.Post			R.Shank.Lower.Ant			R.Shank.Lower.Post			R.Shank.Upper.Ant			R.Ankle.Lat			R.Ankle.Med			R.Heel.Upper			R.Heel.Med			R.Heel.Lat			R.Toe.Lat			R.Toe.Med			R.Toe.Tip			L.Thigh.Upper.Post			L.Thigh.Lower.Ant			L.Thigh.Lower.Post			L.Thigh.Upper.Ant			L.Knee.Lat			L.Knee.Med			L.Shank.Upper.Post			L.Shank.Lower.Ant			L.Shank.Lower.Post			L.Shank.Upper.Ant			L.Ankle.Lat			L.Ankle.Med			L.Heel.Upper			L.Heel.Med			L.Heel.Lat			L.Toe.Lat			L.Toe.Med			L.Toe.Tip			Cervical.Spine			Back			
		X1	Y1	Z1	X2	Y2	Z2	X3	Y3	Z3	X4	Y4	Z4	X5	Y5	Z5	X6	Y6	Z6	X7	Y7	Z7	X8	Y8	Z8	X9	Y9	Z9	X10	Y10	Z10	X11	Y11	Z11	X12	Y12	Z12	X13	Y13	Z13	X14	Y14	Z14	X15	Y15	Z15	X16	Y16	Z16	X17	Y17	Z17	X18	Y18	Z18	X19	Y19	Z19	X20	Y20	Z20	X21	Y21	Z21	X22	Y22	Z22	X23	Y23	Z23	X24	Y24	Z24	X25	Y25	Z25	X26	Y26	Z26	X27	Y27	Z27	X28	Y28	Z28	X29	Y29	Z29	X30	Y30	Z30	X31	Y31	Z31	X32	Y32	Z32	X33	Y33	Z33	X34	Y34	Z34	X35	Y35	Z35	X36	Y36	Z36	X37	Y37	Z37	X38	Y38	Z38	X39	Y39	Z39	X40	Y40	Z40	X41	Y41	Z41	X42	Y42	Z42	X43	Y43	Z43	X44	Y44	Z44	X45	Y45	Z45	X46	Y46	Z46	X47	Y47	Z47	X48	Y48	Z48	X49	Y49	Z49	X50	Y50	Z50	X51	Y51	Z51	

202	0.8375	-385.77	1293.1	338.26	-511.09	1500	507.68	-518.72	1501.9	156.82	-471.64	1817.8	336.31	-438.86	1066	468.65	-426.7	1056.2	214.07	NaN	NaN	NaN	-633.26	1079.1	288.44	-497.91	990.68	515.97	-518.89	975.27	160.12	-526.71	1138	495.42	-501.12	1126.6	175.73	-648.45	1045.6	333.72	-480.51	737.47	495.98	-421.59	660.55	458.26	-489.54	651.44	473.17	-410.11	749.11	478.67	-463.71	542.28	454.6	-461.91	551.88	327.07	-526.3	316.65	443.64	-471.92	248.88	418.72	-538.25	241.69	425.1	-462.33	322.76	435.7	-521.5	111.18	393.25	-509.57	122.76	309.04	-588.71	75.676	344.13	-580.44	44.045	314.2	-581.5	44.281	379.21	-403.92	37.157	422.46	-377.56	41.896	300.31	-311.83	53.329	346.65	-371.16	744.66	163.9	-302.55	679.82	221.34	-359.87	654.41	173.1	-321.19	773.12	208.45	-365.49	562.87	185.23	-337.19	559.39	308.43	-534.15	422.7	182.72	-526.21	334.09	183.03	-586.81	371.62	194.84	-478.54	386.55	176.38	-643.7	241.41	187.16	-629.5	244.78	276.2	-732.05	261.76	230.28	-749.73	234.68	257.43	-739.57	242.87	196.67	-609.16	119.66	160.58	-607.17	97.64	277.18	-536.5	67.321	228.39	-567.13	1553.8	333.57	-628.24	1283.1	331.34
203	0.84167	-380.65	1293.4	338.34	-505.57	1500.5	507.69	-513.5	1502.2	156.86	-466.09	1818.1	336.19	-433.99	1066.3	468.88	-421.61	1056.9	214.31	NaN	NaN	NaN	-628.18	1079.5	288.31	-493.11	990.94	515.96	-513.35	975.96	160.07	-521.78	1138.4	495.48	-495.99	1127.1	175.85	-643.39	1046	333.59	-477.01	737.67	495.87	-418.55	660.43	458.15	-486.52	651.66	473.15	-406.55	748.94	478.42	-461.59	542.25	454.45	-459.68	551.9	326.91	-525.22	316.85	443.51	-471.1	248.87	418.59	-537.46	241.93	424.93	-461.2	322.71	435.59	-521.27	111.33	393.13	-509.3	122.85	308.89	-588.61	75.818	344.04	-580.52	44.136	314.08	-581.44	44.464	379.16	-403.89	37.171	422.42	-377.49	41.814	300.28	-311.73	53.147	346.66	-363.7	746.4	164.3	-294.77	682.13	222.05	-351.64	656.22	173.53	-314.14	775.29	209.08	-356.68	564.6	185.73	-328.71	561.37	308.89	-523.39	421.83	183.05	-514.03	333.37	182.81	-575.12	369.82	194.96	-467.21	386.61	176.34	-629.76	238.49	186.74	-615.58	241.86	275.77	-718.79	256.53	229.81	-735.82	228.94	256.84	-725.79	237.57	196.13	-592.24	117.77	159.79	-589.89	95.498	276.37	-518.36	67.118	227.54	-561.72	1554.2	333.61	-623.03	1283.5	331.45
204	0.84583	-375.53	1293.8	338.41	-500.07	1501	507.7	-508.27	1502.4	156.9	-460.55	1818.4	336.06	-429.12	1066.6	469.1	-416.53	1057.5	214.55	NaN	NaN	NaN	-623.1	1079.9	288.18	-488.3	991.18	515.96	-507.81	976.62	160.03	-516.84	1138.7	495.54	-490.87	1127.7	175.97	-638.31	1046.4	333.46	-473.54	737.85	495.75	-415.54	660.31	458.03	-483.53	651.87	473.11	-403.02	748.75	478.15	-459.52	542.21	454.3	-457.49	551.91	326.73	-524.17	317.05	443.36	-470.31	248.87	418.44	-536.69	242.18	424.75	-460.11	322.65	435.47	-521.04	111.49	393	-509.04	122.93	308.75	-588.51	75.962	343.94	-580.61	44.225	313.96	-581.37	44.65	379.1	-403.86	37.187	422.39	-377.43	41.734	300.25	-311.63	52.967	346.66	-356.33	748.09	164.7	-287.1	684.36	222.76	-343.56	657.97	173.98	-307.15	777.37	209.69	-348.02	566.28	186.24	-320.4	563.3	309.34	-512.64	420.8	183.4	-501.82	332.53	182.61	-563.4	367.86	195.1	-455.91	386.57	176.32	-615.7	235.41	186.37	-601.51	238.79	275.37	-705.33	251.11	229.36	-721.69	223.02	256.28	-711.81	232.07	195.64	-575.2	115.77	159.09	-572.44	93.306	275.64	-500.12	66.862	226.78	-556.31	1554.6	333.64	-617.8	1283.9	331.54
205	0.85	-370.39	1294.1	338.48	-494.58	1501.5	507.7	-503.04	1502.6	156.94	-455.02	1818.6	335.91	-424.24	1066.8	469.31	-411.43	1058.1	214.77	NaN	NaN	NaN	-618	1080.2	288.04	-483.48	991.39	515.95	-502.26	977.25	159.98	-511.89	1139	495.59	-485.75	1128.2	176.09	-633.23	1046.7	333.32	-470.11	738.03	495.61	-412.57	660.18	457.89	-480.57	652.08	473.05	-399.52	748.54	477.88	-457.47	542.17	454.14	-455.34	551.93	326.55	-523.15	317.26	443.2	-469.54	248.87	418.27	-535.93	242.41	424.55	-459.04	322.61	435.34	-520.81	111.64	392.86	-508.78	123	308.59	-588.41	76.106	343.84	-580.69	44.312	313.83	-581.3	44.84	379.04	-403.83	37.205	422.35	-377.37	41.655	300.21	-311.54	52.788	346.65	-349.06	749.72	165.11	-279.54	686.5	223.45	-335.61	659.67	174.44	-300.24	779.37	210.28	-339.52	567.9	186.75	-312.25	565.18	309.78	-501.92	419.63	183.74	-489.57	331.58	182.44	-551.66	365.75	195.26	-444.62	386.43	176.31	-601.51	232.18	186.03	-587.31	235.6	275.02	-691.67	245.5	228.96	-707.33	216.95	255.78	-697.63	226.38	195.2	-558.04	113.66	158.46	-554.82	91.071	274.99	-481.78	66.562	226.11	-550.91	1554.9	333.68	-612.58	1284.3	331.64
206	0.85417	-365.26	1294.3	338.55	-489.09	1501.9	507.7	-497.8	1502.8	156.97	-449.49	1818.9	335.76	-419.35	1067	469.51	-406.33	1058.7	214.97	NaN	NaN	NaN	-612.91	1080.5	287.9	-478.66	991.57	515.95	-496.71	977.85	159.93	-506.92	1139.3	495.63	-480.64	1128.7	176.2	-628.13	1047	333.19	-466.7	738.19	495.46	-409.63	660.05	457.75	-477.64	652.27	472.98	-396.04	748.32	477.6	-455.47	542.13	453.98	-453.23	551.94	326.34	-522.15	317.46	443.02	-468.79	248.88	418.1	-535.19	242.65	424.34	-457.99	322.56	435.2	-520.58	111.8	392.72	-508.52	123.07	308.43	-588.32	76.251	343.73	-580.78	44.399	313.7	-581.23	45.032	378.97	-403.8	37.224	422.3	-377.32	41.576	300.17	-311.44	52.611	346.65	-341.87	751.28	165.52	-272.09	688.56	224.12	-327.81	661.3	174.92	-293.39	781.27	210.86	-331.18	569.46	187.27	-304.26	566.99	310.22	-491.22	418.31	184.09	-477.3	330.52	182.3	-539.88	363.49	195.43	-433.35	386.19	176.33	-587.2	228.8	185.74	-572.97	232.29	274.7	-677.79	239.73	228.6	-692.75	210.74	255.34	-683.24	220.53	194.82	-540.77	111.48	157.9	-537.04	88.806	274.41	-463.35	66.228	225.51	-545.51	1555.2	333.71	-607.35	1284.6	331.73
207	0.85833	-360.11	1294.6	338.61	-483.61	1502.3	507.7	-492.56	1503	157.01	-443.96	1819.1	335.59	-414.45	1067.2	469.69	-401.23	1059.2	215.16	NaN	NaN	NaN	-607.8	1080.7	287.76	-473.82	991.71	515.95	-491.16	978.4	159.88	-501.94	1139.5	495.66	-475.52	1129.1	176.31	-623.02	1047.2	333.05	-463.33	738.35	495.29	-406.74	659.91	457.6	-474.74	652.45	472.9	-392.6	748.07	477.32	-453.5	542.08	453.82	-451.17	551.96	326.13	-521.17	317.66	442.84	-468.07	248.88	417.91	-534.47	242.88	424.13	-456.96	322.53	435.06	-520.35	111.96	392.57	-508.27	123.14	308.26	-588.22	76.397	343.62	-580.87	44.484	313.57	-581.16	45.226	378.9	-403.77	37.244	422.26	-377.28	41.495	300.14	-311.35	52.434	346.65	-334.78	752.77	165.93	-264.77	690.51	224.79	-320.15	662.85	175.41	-286.61	783.07	211.41	-323	570.94	187.79	-296.43	568.73	310.65	-480.54	416.84	184.44	-465	329.35	182.19	-528.08	361.07	195.62	-422.11	385.85	176.37	-572.75	225.3	185.49	-558.48	228.88	274.44	-663.71	233.82	228.31	-677.93	204.41	254.97	-668.65	214.54	194.51	-523.39	109.22	157.4	-519.11	86.52	273.9	-444.85	65.871	224.98	-540.12	1555.4	333.75	-602.12	1284.9	331.82
208	0.8625	-354.96	1294.8	338.66	-478.13	1502.6	507.7	-487.32	1503.1	157.04	-438.44	1819.2	335.4	-409.53	1067.3	469.86	-396.11	1059.7	215.32	NaN	NaN	NaN	-602.69	1080.9	287.63	-468.99	991.81	515.95	-485.63	978.91	159.83	-496.94	1139.7	495.69	-470.41	1129.5	176.41	-617.89	1047.4	332.92	-459.99	738.49	495.11	-403.88	659.77	457.44	-471.88	652.62	472.79	-389.2	747.8	477.05	-451.57	542.04	453.66	-449.14	551.97	325.91	-520.2	317.85	442.66	-467.37	248.89	417.7	-533.75	243.11	423.91	-455.96	322.49	434.91	-520.13	112.12	392.43	-508.03	123.2	308.08	-588.13	76.544	343.5	-580.94	44.568	313.45	-581.08	45.421	378.83	-403.74	37.264	422.21	-377.24	41.413	300.1	-311.26	52.257	346.65	-327.79	754.19	166.35	-257.55	692.35	225.43	-312.65	664.33	175.92	-279.9	784.77	211.94	-314.99	572.34	188.3	-288.76	570.4	311.06	-469.89	415.23	184.8	-452.68	328.08	182.11	-516.24	358.52	195.84	-410.89	385.4	176.44	-558.19	221.69	185.29	-543.84	225.37	274.22	-649.42	227.78	228.08	-662.88	197.97	254.68	-653.86	208.42	194.27	-505.92	106.92	156.96	-501.01	84.223	273.45	-426.27	65.504	224.49	-534.72	1555.7	333.79	-596.9	1285.2	331.92
